<svg xmlns="http://www.w3.org/2000/svg" xmlns:xlink="http://www.w3.org/1999/xlink"
 width="100" zoomAndPan="magnify" viewBox="0 0 750 749.999995" height="100"
  preserveAspectRatio="xMidYMid meet" version="1.0"><defs><g/><clipPath id="997481bf65">
  <path d="M 7.398438 7.398438 L 742.601562 7.398438 L 742.601562 742.601562 L 7.398438 742.601562
   Z M 7.398438 7.398438 " clip-rule="nonzero"/></clipPath><clipPath id="9628f0ce97">
   <path d="M 375 7.398438 C 171.980469 7.398438 7.398438 171.980469 7.398438 375 C 7.398438
    578.019531 171.980469 742.601562 375 742.601562 C 578.019531 742.601562 742.601562 578.019531
     742.601562 375 C 742.601562 171.980469 578.019531 7.398438 375 7.398438 " clip-rule="nonzero"/>
     </clipPath></defs><g clip-path="url(#997481bf65)"><g clip-path="url(#9628f0ce97)">
     <path fill="#545454" d="M 7.398438 7.398438 L 742.601562 7.398438 L 742.601562 742.601562 
     L 7.398438 742.601562 Z M 7.398438 7.398438 " fill-opacity="1" fill-rule="nonzero"/></g>
     </g><g fill="#ffffff" fill-opacity="1"><g transform="translate(156.656993, 533.303189)">
     <g><path d="M 150.621094 -159.105469 L 150.265625 -253.863281 L 109.253906 -253.863281 L
      109.605469 -159.105469 C 109.605469 -147.4375 109.605469 -133.648438 109.605469 -119.507812
       L 108.898438 -121.273438 C 106.425781 -125.871094 103.949219 -130.820312 101.476562 -135.417969 
       C 99 -140.367188 96.878906 -144.964844 94.757812 -149.558594 C 93.695312 -151.328125 92.988281 
       -153.097656 92.28125 -154.863281 L 88.039062 -164.410156 L 83.089844 -174.308594 C 82.382812 -175.722656 81.675781 -177.492188 80.96875 -178.90625 L 73.542969 -193.050781 C 68.59375 -202.597656 63.644531 -212.140625 58.691406 -223.101562 L 57.632812 -225.578125 L 19.800781 -218.507812 L 18.386719 -194.816406 L 16.617188 -152.390625 L 15.910156 -140.722656 C 15.558594 -126.222656 15.203125 -111.726562 14.851562 -97.9375 C 14.144531 -73.1875 14.144531 -46.671875 14.144531 -12.375 L 14.144531 -8.839844 L 55.15625 -8.839844 L 55.15625 -12.375 C 55.15625 -46.316406 55.15625 -72.480469 55.863281 -96.878906 C 56.21875 -108.898438 56.570312 -120.921875 56.925781 -133.648438 C 56.925781 -133.296875 57.277344 -132.589844 57.632812 -132.234375 C 59.753906 -127.285156 62.226562 -122.335938 64.703125 -117.03125 C 67.179688 -112.082031 69.652344 -107.132812 72.128906 -102.535156 L 79.90625 -87.683594 C 88.746094 -70.007812 98.644531 -50.207031 108.546875 -25.8125 L 109.605469 -23.335938 L 147.792969 -29.347656 L 148.144531 -32.175781 C 148.5 -37.125 148.5 -42.78125 148.851562 -47.730469 L 149.558594 -65.058594 L 149.914062 -82.382812 C 150.265625 -87.683594 150.265625 -93.34375 150.265625 -99 L 150.621094 -113.140625 C 150.621094 -129.761719 150.621094 -145.671875 150.621094 -159.105469 Z M 143.550781 -113.496094 L 143.195312 -99 C 143.195312 -93.34375 143.195312 -88.039062 142.84375 -82.382812 L 142.488281 -65.410156 L 141.78125 -48.085938 C 141.429688 -43.84375 141.429688 -39.601562 141.074219 -35.355469 L 113.847656 -31.113281 C 104.304688 -54.449219 94.757812 -73.542969 85.917969 -90.867188 L 78.492188 -105.71875 C 76.019531 -110.667969 73.542969 -115.265625 71.066406 -120.214844 C 68.59375 -125.515625 66.117188 -130.46875 63.996094 -135.417969 C 62.933594 -137.183594 62.226562 -138.953125 61.167969 -141.074219 L 50.914062 -163.347656 L 49.851562 -139.308594 C 49.5 -124.808594 49.144531 -110.667969 48.792969 -97.230469 C 48.085938 -73.542969 48.085938 -48.4375 48.085938 -15.910156 L 20.859375 -15.910156 C 21.214844 -48.4375 21.214844 -73.894531 21.921875 -97.585938 C 22.273438 -111.375 22.628906 -125.871094 22.980469 -140.367188 L 24.394531 -173.25 L 26.519531 -212.496094 L 53.390625 -217.445312 C 57.984375 -207.546875 62.582031 -198.707031 67.179688 -189.867188 L 74.601562 -175.722656 C 75.308594 -174.308594 76.019531 -172.542969 77.078125 -171.128906 L 79.90625 -164.765625 L 85.917969 -152.035156 C 86.625 -150.265625 87.332031 -148.5 88.390625 -146.730469 C 90.515625 -142.136719 92.636719 -137.183594 95.109375 -132.234375 C 97.585938 -127.640625 100.058594 -122.6875 102.535156 -117.738281 L 116.324219 -90.867188 L 116.679688 -113.496094 C 116.679688 -129.761719 116.679688 -145.671875 116.679688 -159.105469 L 116.324219 -246.792969 L 143.195312 -246.792969 L 143.550781 -159.105469 C 143.550781 -145.671875 143.550781 -129.761719 143.550781 -113.496094 Z M 143.550781 -113.496094 "/></g></g></g><g fill="#ffffff" fill-opacity="1"><g transform="translate(321.766725, 533.303189)"><g><path d="M 79.199219 -44.550781 L 76.371094 -44.550781 L 78.492188 -208.960938 L 78.847656 -208.960938 C 84.855469 -208.960938 90.867188 -208.960938 97.230469 -208.960938 L 100.765625 -208.960938 L 100.765625 -249.972656 L 97.230469 -249.972656 C 91.222656 -249.972656 85.5625 -249.972656 79.554688 -249.972656 C 59.398438 -250.328125 38.539062 -250.679688 17.324219 -248.914062 L 14.144531 -248.558594 L 16.972656 -207.898438 L 20.507812 -207.898438 C 25.8125 -208.605469 31.46875 -208.605469 37.476562 -208.960938 L 35.003906 -44.550781 C 28.992188 -44.195312 22.980469 -43.84375 17.324219 -43.488281 L 14.144531 -43.136719 L 16.972656 -2.121094 L 20.507812 -2.476562 C 39.601562 -3.890625 59.046875 -3.890625 79.199219 -3.535156 C 85.210938 -3.535156 91.222656 -3.535156 97.230469 -3.183594 L 100.765625 -3.183594 L 100.765625 -44.195312 L 97.230469 -44.195312 C 91.222656 -44.550781 85.210938 -44.550781 79.199219 -44.550781 Z M 93.695312 -10.253906 C 88.746094 -10.605469 84.148438 -10.605469 79.554688 -10.605469 C 60.105469 -10.960938 41.722656 -10.960938 23.6875 -9.898438 L 21.566406 -36.769531 C 26.871094 -37.125 32.527344 -37.125 38.894531 -37.476562 L 42.074219 -37.476562 L 44.550781 -216.03125 L 41.015625 -216.03125 C 34.648438 -216.03125 28.992188 -215.679688 23.6875 -215.324219 L 21.566406 -242.195312 C 41.367188 -243.609375 60.460938 -243.257812 79.199219 -242.902344 C 84.148438 -242.902344 89.101562 -242.902344 93.695312 -242.902344 L 93.695312 -216.03125 C 88.746094 -216.03125 83.796875 -216.03125 78.847656 -216.03125 L 71.421875 -216.03125 L 68.945312 -37.476562 L 79.199219 -37.476562 C 83.796875 -37.476562 88.746094 -37.476562 93.695312 -37.476562 Z M 93.695312 -10.253906 "/></g></g></g><g fill="#ffffff" fill-opacity="1"><g transform="translate(437.378898, 533.303189)"><g><path d="M 147.4375 -250.328125 L 147.4375 -253.863281 L 106.425781 -255.632812 L 106.425781 -252.09375 C 104.65625 -208.253906 86.269531 -164.765625 56.21875 -131.882812 L 55.15625 -256.691406 L 14.144531 -256.691406 L 16.972656 4.242188 L 57.984375 3.183594 L 56.925781 -74.601562 C 66.472656 -72.128906 75.308594 -66.472656 82.027344 -58.691406 C 90.515625 -48.4375 96.171875 -34.648438 96.878906 -20.152344 L 97.230469 -16.617188 L 138.246094 -19.445312 L 137.890625 -22.980469 C 137.183594 -34.296875 134.710938 -45.257812 130.46875 -55.863281 C 126.222656 -66.824219 120.566406 -76.726562 113.140625 -85.210938 C 106.070312 -93.695312 97.585938 -100.765625 88.390625 -106.070312 C 100.765625 -120.214844 111.726562 -135.769531 120.566406 -152.742188 C 136.832031 -183.148438 146.023438 -216.738281 147.4375 -250.328125 Z M 79.90625 -107.484375 L 76.726562 -103.949219 L 81.675781 -101.476562 C 82.027344 -101.121094 82.382812 -101.121094 82.382812 -101.121094 C 91.929688 -96.171875 100.765625 -89.101562 107.839844 -80.613281 C 114.558594 -72.835938 120.214844 -63.289062 124.101562 -53.035156 C 127.285156 -44.550781 129.761719 -35.355469 130.46875 -25.8125 L 103.597656 -24.042969 C 102.183594 -38.894531 96.171875 -52.683594 87.332031 -63.289062 C 78.847656 -73.542969 66.824219 -80.261719 54.449219 -82.382812 L 52.683594 -82.734375 L 49.851562 -80.261719 L 50.558594 -3.535156 L 23.6875 -3.183594 L 21.214844 -249.621094 L 48.085938 -249.621094 L 49.5 -114.558594 L 55.511719 -120.566406 C 89.453125 -154.511719 110.3125 -200.828125 113.140625 -248.207031 L 140.015625 -247.144531 C 138.246094 -216.03125 129.40625 -184.5625 114.558594 -155.925781 C 105.011719 -138.246094 93.34375 -121.980469 79.90625 -107.484375 Z M 79.90625 -107.484375 "/></g></g></g></svg>